<svg width="24" height="24" viewBox="0 0 24 24" fill="none" xmlns="http://www.w3.org/2000/svg">
<mask id="mask0_460_1190" style="mask-type:alpha" maskUnits="userSpaceOnUse" x="0" y="0" width="24" height="24">
<rect width="24" height="24" fill="#FB8500"/>
</mask>
<g mask="url(#mask0_460_1190)">
<path d="M4 7C4 6.16667 4.29167 5.45833 4.875 4.875C5.45833 4.29167 6.16667 4 7 4H17C17.8333 4 18.5417 4.29167 19.125 4.875C19.7083 5.45833 20 6.16667 20 7V9C20.8333 9 21.5417 9.29167 22.125 9.875C22.7083 10.4583 23 11.1667 23 12V17C23 17.8333 22.7083 18.5417 22.125 19.125C21.5417 19.7083 20.8333 20 20 20H4C3.16667 20 2.45833 19.7083 1.875 19.125C1.29167 18.5417 1 17.8333 1 17V12C1 11.1667 1.29167 10.4583 1.875 9.875C2.45833 9.29167 3.16667 9 4 9V7ZM6 7V9.8C6.3 10.0833 6.54167 10.4083 6.725 10.775C6.90833 11.1417 7 11.55 7 12V14H17V12C17 11.55 17.0917 11.1417 17.275 10.775C17.4583 10.4083 17.7 10.0833 18 9.8V7C18 6.71667 17.9042 6.47917 17.7125 6.2875C17.5208 6.09583 17.2833 6 17 6H7C6.71667 6 6.47917 6.09583 6.2875 6.2875C6.09583 6.47917 6 6.71667 6 7ZM19 16H5V12C5 11.8667 4.975 11.7375 4.925 11.6125C4.875 11.4875 4.80417 11.3792 4.7125 11.2875C4.62083 11.1958 4.5125 11.125 4.3875 11.075C4.2625 11.025 4.13333 11 4 11C3.71667 11 3.47917 11.0958 3.2875 11.2875C3.09583 11.4792 3 11.7167 3 12V17C3 17.2833 3.09583 17.5208 3.2875 17.7125C3.47917 17.9042 3.71667 18 4 18H20C20.2833 18 20.5208 17.9042 20.7125 17.7125C20.9042 17.5208 21 17.2833 21 17V12C21 11.7167 20.9042 11.4792 20.7125 11.2875C20.5208 11.0958 20.2833 11 20 11C19.8667 11 19.7375 11.025 19.6125 11.075C19.4875 11.125 19.3792 11.1958 19.2875 11.2875C19.1958 11.3792 19.125 11.4875 19.075 11.6125C19.025 11.7375 19 11.8667 19 12V16Z" fill="#FB8500"/>
</g>
</svg>
