<svg width="46" height="43" viewBox="0 0 46 43" fill="none" xmlns="http://www.w3.org/2000/svg">
<path opacity="0.3" d="M29.9192 36.1875C36.364 31.7863 40.4693 20.8143 26.1132 16.5694C30.2186 25.3076 21.4748 29.0516 17.6695 25.8807C10.512 19.9165 21.1282 2.45765 34.9583 14.8959C47.1369 25.8487 34.8496 38.5714 28.192 41.9359C30.3194 43.1744 37.5444 41.358 43.7027 32.4416C50.817 22.1409 40.4634 1.89555 26.1737 1.15627C11.8841 0.416978 7.6802 1.96048 -0.00135088 6.73186e-05C1.26841 6.81242 8.37397 9.65194 11.768 10.2202C8.25758 12.9832 6.09854 17.7126 7.23648 23.1783C11.3834 40.1628 24.1073 40.1566 29.9192 36.1875Z" fill="white"/>
</svg>
